<svg xmlns="http://www.w3.org/2000/svg" viewBox="0 0 500 500"><g id="freepik--background-simple--inject-3"><path d="M375.55,256.43c-9.53,30.07,1.53,71.33-38.35,92.17-53.25,27.83-74.67-24.25-113.06-29.73-29.32-4.19-92,58.61-124,27.19s40.71-88,48.16-117.51c7.36-29.2-37.27-73.32,10.76-109.07,47.09-35.06,84.88,16.87,122.73,23,33.57,5.39,126.92-50,144.72-8.56C443.32,173.13,384.76,227.4,375.55,256.43Z" style="fill:#407BFF"></path><path d="M375.55,256.43c-9.53,30.07,1.53,71.33-38.35,92.17-53.25,27.83-74.67-24.25-113.06-29.73-29.32-4.19-92,58.61-124,27.19s40.71-88,48.16-117.51c7.36-29.2-37.27-73.32,10.76-109.07,47.09-35.06,84.88,16.87,122.73,23,33.57,5.39,126.92-50,144.72-8.56C443.32,173.13,384.76,227.4,375.55,256.43Z" style="fill:#fff;opacity:0.9"></path></g><g id="freepik--Shadow--inject-3"><ellipse id="freepik--path--inject-3" cx="253.01" cy="411.1" rx="196.9" ry="12.61" style="fill:#f5f5f5"></ellipse></g><g id="freepik--Ambulance--inject-3"><ellipse cx="160.29" cy="255.32" rx="56.77" ry="38" style="fill:#407BFF;isolation:isolate;opacity:0.1"></ellipse><ellipse cx="160.29" cy="255.32" rx="38.62" ry="25.85" style="fill:#407BFF;isolation:isolate;opacity:0.1"></ellipse><ellipse cx="393.31" cy="237.23" rx="56.77" ry="38" style="fill:#407BFF;isolation:isolate;opacity:0.1"></ellipse><ellipse cx="393.31" cy="237.23" rx="38.62" ry="25.85" style="fill:#407BFF;isolation:isolate;opacity:0.1"></ellipse><rect x="149.47" y="268.96" width="10.82" height="1.45" style="fill:#263238"></rect><path d="M149.6,254.23a5.29,5.29,0,0,1,.9.08h0a.89.89,0,0,1,.36-.07h84.89a5,5,0,0,1,5,5V263a5,5,0,0,1-5,5H150.87a.92.92,0,0,1-.38-.08,5.26,5.26,0,0,1-.89.08h-8.44a4.84,4.84,0,0,1-4.84-4.85v-4.1a4.84,4.84,0,0,1,4.84-4.84h8.44m0-1.07h-8.44a5.91,5.91,0,0,0-5.9,5.91v4.1a5.92,5.92,0,0,0,5.9,5.92h8.44a5.49,5.49,0,0,0,.8-.06,1.84,1.84,0,0,0,.47.06h84.89a6,6,0,0,0,6-6v-3.83a6,6,0,0,0-6-6H150.87a2.12,2.12,0,0,0-.44.05,5.79,5.79,0,0,0-.83-.06Z" style="fill:#407BFF"></path><path d="M240.64,259.2V263a5,5,0,0,1-5,5H150.78a1,1,0,0,1-.95-.95v-11.9a1,1,0,0,1,.95-.94h84.89A5,5,0,0,1,240.64,259.2Z" style="fill:#407BFF;opacity:0.4"></path><path d="M227.58,254.23H236a4.84,4.84,0,0,1,4.84,4.84v4.1A4.84,4.84,0,0,1,236,268h-8.44a4.85,4.85,0,0,1-4.85-4.85v-4.1A4.85,4.85,0,0,1,227.58,254.23Z" style="fill:#fff;opacity:0.6000000000000001"></path><g style="opacity:0.6000000000000001"><path d="M240.85,259.08v4.09a4.54,4.54,0,1,1-9.06,0v-4.09a4.54,4.54,0,1,1,9.06,0Z" style="fill:#407BFF"></path></g><g style="opacity:0.4"><g style="opacity:0.6000000000000001"><path d="M240.85,259.08v4.09a4.54,4.54,0,1,1-9.06,0v-4.09a4.54,4.54,0,1,1,9.06,0Z" style="fill:#407BFF"></path></g></g><g style="opacity:0.6000000000000001"><path d="M163.41,259.08v4.09a4.84,4.84,0,0,1-4.84,4.85h-8.74a4.85,4.85,0,0,0,4.52-4.84v-4.09a4.84,4.84,0,0,0-4.52-4.84h8.74A4.83,4.83,0,0,1,163.41,259.08Z" style="fill:#fff"></path></g><path d="M154.35,259.08v4.09a4.54,4.54,0,1,1-9.06,0v-4.09a4.54,4.54,0,1,1,9.06,0Z" style="fill:#407BFF"></path><g style="opacity:0.30000000000000004"><path d="M154.35,259.08v4.09a4.54,4.54,0,1,1-9.06,0v-4.09a4.54,4.54,0,1,1,9.06,0Z" style="fill:#fff"></path></g><path d="M141.07,254.23h8.44a4.85,4.85,0,0,1,4.85,4.85v4.1a4.84,4.84,0,0,1-4.84,4.84h-8.44a4.85,4.85,0,0,1-4.85-4.85v-4.1A4.84,4.84,0,0,1,141.07,254.23Z" style="fill:#407BFF"></path><g style="opacity:0.4"><path d="M141.07,254.23h8.44a4.85,4.85,0,0,1,4.85,4.85v4.1a4.84,4.84,0,0,1-4.84,4.84h-8.44a4.85,4.85,0,0,1-4.85-4.85v-4.1A4.84,4.84,0,0,1,141.07,254.23Z" style="fill:#fff"></path></g><path d="M186.17,259.08v4.09a4.84,4.84,0,0,1-4.84,4.85h-8.74a4.85,4.85,0,0,0,4.52-4.84v-4.09a4.84,4.84,0,0,0-4.52-4.84h8.74A4.83,4.83,0,0,1,186.17,259.08Z" style="fill:#407BFF"></path><g style="opacity:0.5"><path d="M200.33,259.08v4.09a4.84,4.84,0,0,1-4.85,4.85h-8.73a4.85,4.85,0,0,0,4.52-4.84v-4.09a4.84,4.84,0,0,0-4.52-4.84h8.73A4.84,4.84,0,0,1,200.33,259.08Z" style="fill:#fff"></path></g><path d="M177.11,259.08v4.09a4.54,4.54,0,1,1-9.05,0v-4.09a4.54,4.54,0,1,1,9.05,0Z" style="fill:#407BFF"></path><g style="opacity:0.30000000000000004"><path d="M177.11,259.08v4.09a4.54,4.54,0,1,1-9.05,0v-4.09a4.54,4.54,0,1,1,9.05,0Z" style="fill:#fff"></path></g><path d="M218.79,259.08v4.09A4.84,4.84,0,0,1,214,268h-8.74a4.86,4.86,0,0,0,4.53-4.84v-4.09a4.85,4.85,0,0,0-4.53-4.84H214A4.83,4.83,0,0,1,218.79,259.08Z" style="fill:#407BFF"></path><path d="M209.74,259.08v4.09a4.54,4.54,0,1,1-9.06,0v-4.09a4.54,4.54,0,1,1,9.06,0Z" style="fill:#407BFF"></path><g style="opacity:0.30000000000000004"><path d="M209.74,259.08v4.09a4.54,4.54,0,1,1-9.06,0v-4.09a4.54,4.54,0,1,1,9.06,0Z" style="fill:#fff"></path></g><path d="M354.68,234.14a5.29,5.29,0,0,1,.9.08h0a.86.86,0,0,1,.36-.07h84.88a5,5,0,0,1,5,5V243a5,5,0,0,1-5,5H356a.86.86,0,0,1-.39-.09,4.24,4.24,0,0,1-.88.09h-8.44a4.84,4.84,0,0,1-4.84-4.85V239a4.84,4.84,0,0,1,4.84-4.84h8.44m0-1.07h-8.44a5.92,5.92,0,0,0-5.91,5.91v4.1a5.92,5.92,0,0,0,5.91,5.91h8.44a5.46,5.46,0,0,0,.8-.05,1.83,1.83,0,0,0,.47.05h84.88a6,6,0,0,0,6-6v-3.83a6,6,0,0,0-6-6H356a2.22,2.22,0,0,0-.45,0,5.76,5.76,0,0,0-.82-.06Z" style="fill:#407BFF"></path><path d="M445.72,239.11v3.83a5,5,0,0,1-5,5H355.86a1,1,0,0,1-.95-.94v-11.9a1,1,0,0,1,.95-.94h84.88A5,5,0,0,1,445.72,239.11Z" style="fill:#407BFF;opacity:0.4"></path><path d="M432.65,234.14h8.44a4.85,4.85,0,0,1,4.85,4.85v4.1a4.85,4.85,0,0,1-4.85,4.85h-8.44a4.85,4.85,0,0,1-4.85-4.85V239A4.84,4.84,0,0,1,432.65,234.14Z" style="fill:#fff;opacity:0.6000000000000001"></path><g style="opacity:0.6000000000000001"><path d="M445.93,239v4.1a4.54,4.54,0,1,1-9.06,0V239a4.54,4.54,0,1,1,9.06,0Z" style="fill:#407BFF"></path></g><g style="opacity:0.4"><g style="opacity:0.6000000000000001"><path d="M445.93,239v4.1a4.54,4.54,0,1,1-9.06,0V239a4.54,4.54,0,1,1,9.06,0Z" style="fill:#407BFF"></path></g></g><g style="opacity:0.6000000000000001"><path d="M368.49,239v4.1a4.84,4.84,0,0,1-4.85,4.84h-8.73a4.84,4.84,0,0,0,4.52-4.83V239a4.84,4.84,0,0,0-4.52-4.83h8.73A4.83,4.83,0,0,1,368.49,239Z" style="fill:#fff"></path></g><path d="M359.43,239v4.1a4.54,4.54,0,1,1-9.06,0V239a4.54,4.54,0,1,1,9.06,0Z" style="fill:#407BFF"></path><g style="opacity:0.30000000000000004"><path d="M359.43,239v4.1a4.54,4.54,0,1,1-9.06,0V239a4.54,4.54,0,1,1,9.06,0Z" style="fill:#fff"></path></g><path d="M346.15,234.14h8.44a4.85,4.85,0,0,1,4.85,4.85v4.1a4.84,4.84,0,0,1-4.84,4.84h-8.44a4.85,4.85,0,0,1-4.85-4.85V239A4.84,4.84,0,0,1,346.15,234.14Z" style="fill:#407BFF"></path><g style="opacity:0.4"><path d="M346.15,234.14h8.44a4.85,4.85,0,0,1,4.85,4.85v4.1a4.84,4.84,0,0,1-4.84,4.84h-8.44a4.85,4.85,0,0,1-4.85-4.85V239A4.84,4.84,0,0,1,346.15,234.14Z" style="fill:#fff"></path></g><path d="M391.25,239v4.1a4.84,4.84,0,0,1-4.84,4.84h-8.74a4.84,4.84,0,0,0,4.52-4.83V239a4.84,4.84,0,0,0-4.52-4.83h8.74A4.83,4.83,0,0,1,391.25,239Z" style="fill:#407BFF"></path><g style="opacity:0.5"><path d="M405.4,239v4.1a4.84,4.84,0,0,1-4.84,4.84h-8.74a4.85,4.85,0,0,0,4.53-4.83V239a4.85,4.85,0,0,0-4.53-4.83h8.74A4.83,4.83,0,0,1,405.4,239Z" style="fill:#fff"></path></g><path d="M382.19,239v4.1a4.54,4.54,0,1,1-9.06,0V239a4.54,4.54,0,1,1,9.06,0Z" style="fill:#407BFF"></path><g style="opacity:0.30000000000000004"><path d="M382.19,239v4.1a4.54,4.54,0,1,1-9.06,0V239a4.54,4.54,0,1,1,9.06,0Z" style="fill:#fff"></path></g><path d="M423.87,239v4.1a4.84,4.84,0,0,1-4.84,4.84h-8.74a4.84,4.84,0,0,0,4.52-4.83V239a4.84,4.84,0,0,0-4.52-4.83H419A4.83,4.83,0,0,1,423.87,239Z" style="fill:#407BFF"></path><path d="M414.81,239v4.1a4.54,4.54,0,1,1-9.06,0V239a4.54,4.54,0,1,1,9.06,0Z" style="fill:#407BFF"></path><g style="opacity:0.30000000000000004"><path d="M414.81,239v4.1a4.54,4.54,0,1,1-9.06,0V239a4.54,4.54,0,1,1,9.06,0Z" style="fill:#fff"></path></g><ellipse cx="346.8" cy="384.59" rx="18.32" ry="20.32" style="fill:#263238"></ellipse><ellipse cx="346.8" cy="384.59" rx="18.32" ry="20.32" style="opacity:0.2"></ellipse><ellipse cx="340.05" cy="384.59" rx="18.32" ry="20.32" style="fill:#263238"></ellipse><path d="M352.47,384.59c0,6.6-4.19,12.12-9.78,13.46a11.49,11.49,0,0,1-2.64.31c-6.85,0-12.41-6.17-12.41-13.77s5.56-13.78,12.41-13.78a11.49,11.49,0,0,1,2.64.31C348.28,372.46,352.47,378,352.47,384.59Z" style="fill:#fff"></path><path d="M352.47,384.59c0,6.6-4.19,12.12-9.78,13.46-5.6-1.34-9.79-6.86-9.79-13.46s4.19-12.13,9.79-13.47C348.28,372.46,352.47,378,352.47,384.59Z" style="opacity:0.2"></path><path d="M346.81,364.26a17.15,17.15,0,0,0-3.38.36,17,17,0,0,0-3.37-.36c-10.11,0-18.31,9.1-18.31,20.33s8.2,20.32,18.31,20.32a16.26,16.26,0,0,0,3.37-.36,16.43,16.43,0,0,0,3.38.36c10.11,0,18.31-9.1,18.31-20.32S356.92,364.26,346.81,364.26Z" style="opacity:0.5"></path><ellipse cx="175.21" cy="384.59" rx="18.32" ry="20.32" style="fill:#263238"></ellipse><ellipse cx="175.21" cy="384.59" rx="18.32" ry="20.32" style="opacity:0.2"></ellipse><ellipse cx="168.47" cy="384.59" rx="18.32" ry="20.32" style="fill:#263238"></ellipse><path d="M180.89,384.59c0,6.6-4.19,12.12-9.78,13.46a11.56,11.56,0,0,1-2.64.31c-6.85,0-12.41-6.17-12.41-13.77s5.56-13.78,12.41-13.78a11.56,11.56,0,0,1,2.64.31C176.7,372.46,180.89,378,180.89,384.59Z" style="fill:#fff"></path><path d="M180.89,384.59c0,6.6-4.19,12.12-9.78,13.46-5.6-1.34-9.79-6.86-9.79-13.46s4.19-12.13,9.79-13.47C176.7,372.46,180.89,378,180.89,384.59Z" style="opacity:0.2"></path><path d="M175.21,364.26a17.13,17.13,0,0,0-3.37.36,17,17,0,0,0-3.37-.36c-10.11,0-18.31,9.1-18.31,20.33s8.2,20.32,18.31,20.32a16.33,16.33,0,0,0,3.37-.36,16.41,16.41,0,0,0,3.37.36c10.12,0,18.32-9.1,18.32-20.32S185.33,364.26,175.21,364.26Z" style="opacity:0.5"></path><polygon points="240.65 390.02 249.44 384.59 286.8 384.59 286.8 355.54 243.53 355.54 240.65 390.02"></polygon><polygon points="69.12 390.02 77.91 384.59 115.27 384.59 115.27 355.54 72 355.54 69.12 390.02"></polygon><ellipse cx="267.1" cy="384.59" rx="18.32" ry="20.32" style="fill:#263238"></ellipse><ellipse cx="267.1" cy="384.59" rx="18.32" ry="20.32" style="opacity:0.2"></ellipse><ellipse cx="260.35" cy="384.59" rx="18.32" ry="20.32" style="fill:#263238"></ellipse><path d="M272.76,384.58a14.1,14.1,0,0,1-6.22,11.95,11.71,11.71,0,0,1-3.56,1.52l-.63.14h0a13,13,0,0,1-2,.17c-6.85,0-12.41-6.17-12.41-13.78s5.56-13.77,12.41-13.77a10.71,10.71,0,0,1,1.89.16c.25,0,.5.09.74.15a11.33,11.33,0,0,1,3.43,1.45h0A14.06,14.06,0,0,1,272.76,384.58Z" style="fill:#fff"></path><path d="M272.76,384.58a14.1,14.1,0,0,1-6.22,11.95,11.71,11.71,0,0,1-3.56,1.52l-.63.14h0c-6.26-.7-11.13-6.54-11.13-13.62s4.82-12.85,11-13.6c.25,0,.5.09.74.15a11.33,11.33,0,0,1,3.43,1.45h0A14.06,14.06,0,0,1,272.76,384.58Z" style="opacity:0.30000000000000004"></path><path d="M272.76,384.58a14.1,14.1,0,0,1-6.22,11.95c-.41.11-.81.21-1.23.28a9.15,9.15,0,0,1-1.74.15,10.84,10.84,0,0,1-1.51-.1,10.56,10.56,0,0,1-5.11-2.28,11.17,11.17,0,0,1-2.37-2.57,12.76,12.76,0,0,1-2.12-5.62,12.22,12.22,0,0,1-.13-1.83,12.69,12.69,0,0,1,.13-1.85,13,13,0,0,1,2.13-5.62,11.52,11.52,0,0,1,2.36-2.56,10.61,10.61,0,0,1,5.12-2.26,9.29,9.29,0,0,1,1.5-.12,11.12,11.12,0,0,1,1.73.15,8.17,8.17,0,0,1,1.11.27h0A14.06,14.06,0,0,1,272.76,384.58Z" style="opacity:0.2"></path><ellipse cx="263.55" cy="384.67" rx="8.8" ry="9.71" style="opacity:0.2"></ellipse><path d="M269.18,384.78a5.66,5.66,0,1,1-5.63-6.21A5.94,5.94,0,0,1,269.18,384.78Z" style="opacity:0.2"></path><path d="M266.23,384.69a2.76,2.76,0,1,1-2.75-3A2.9,2.9,0,0,1,266.23,384.69Z"></path><path d="M265.3,372.3a1.74,1.74,0,0,1-1.61,1.14,1.77,1.77,0,0,1-1.62-1.17,9.2,9.2,0,0,1,1.5-.12A10,10,0,0,1,265.3,372.3Z" style="fill:#263238"></path><path d="M265.31,396.81a9.16,9.16,0,0,1-1.74.16,9.42,9.42,0,0,1-1.51-.12,1.71,1.71,0,0,1,3.25,0Z" style="fill:#263238"></path><path d="M256.57,376.7a1.65,1.65,0,0,1-2,.4,12.07,12.07,0,0,1,2.36-2.57A2.1,2.1,0,0,1,256.57,376.7Z" style="fill:#263238"></path><path d="M253.63,384.55a2,2,0,0,1-1.18,1.84,13.83,13.83,0,0,1-.13-1.83,14.13,14.13,0,0,1,.13-1.85A2,2,0,0,1,253.63,384.55Z" style="fill:#263238"></path><path d="M256.94,394.58a11.57,11.57,0,0,1-2.36-2.57,1.64,1.64,0,0,1,2,.4A2.08,2.08,0,0,1,256.94,394.58Z" style="fill:#263238"></path><rect x="354.91" y="247.92" width="90.81" height="142.1" style="fill:#407BFF"></rect><rect x="354.91" y="247.92" width="90.81" height="142.1" style="fill:#fff;opacity:0.30000000000000004"></rect><path d="M354.91,247.92V390H284.48l-1.75-17c-.75-7.33-7.59-12.88-15.33-12.88h-9.66c-7.74,0-14.58,5.55-15.33,12.88l-1.75,17h-82.5V247.92Z" style="fill:#407BFF"></path><path d="M354.91,247.92V390H284.48l-1.75-17c-.75-7.33-7.59-12.88-15.33-12.88h-9.66c-7.74,0-14.58,5.55-15.33,12.88l-1.75,17h-82.5V247.92Z" style="fill:#fff;opacity:0.5"></path><ellipse cx="95.67" cy="384.59" rx="18.32" ry="20.32" style="fill:#263238"></ellipse><ellipse cx="95.67" cy="384.59" rx="18.32" ry="20.32" style="opacity:0.2"></ellipse><ellipse cx="88.93" cy="384.59" rx="18.32" ry="20.32" style="fill:#263238"></ellipse><path d="M101.34,384.58a14.11,14.11,0,0,1-6.23,11.95,11.71,11.71,0,0,1-3.56,1.52l-.62.14h0a13,13,0,0,1-2,.17c-6.86,0-12.42-6.17-12.42-13.78s5.56-13.77,12.42-13.77a10.68,10.68,0,0,1,1.88.16c.25,0,.5.09.74.15A11.33,11.33,0,0,1,95,372.57h0A14.07,14.07,0,0,1,101.34,384.58Z" style="fill:#fff"></path><path d="M101.34,384.58a14.11,14.11,0,0,1-6.23,11.95,11.71,11.71,0,0,1-3.56,1.52l-.62.14h0c-6.26-.7-11.14-6.54-11.14-13.62s4.82-12.85,11-13.6c.25,0,.5.09.74.15A11.33,11.33,0,0,1,95,372.57h0A14.07,14.07,0,0,1,101.34,384.58Z" style="opacity:0.30000000000000004"></path><path d="M101.34,384.58a14.11,14.11,0,0,1-6.23,11.95c-.41.11-.81.21-1.22.28a9.26,9.26,0,0,1-1.75.15,10.84,10.84,0,0,1-1.51-.1,10.56,10.56,0,0,1-5.11-2.28A11.13,11.13,0,0,1,83.16,392,12.65,12.65,0,0,1,81,386.39a12.22,12.22,0,0,1-.13-1.83,12.69,12.69,0,0,1,.13-1.85,12.83,12.83,0,0,1,2.14-5.62,11.48,11.48,0,0,1,2.35-2.56,10.61,10.61,0,0,1,5.12-2.26,9.29,9.29,0,0,1,1.5-.12,11,11,0,0,1,1.73.15,8.17,8.17,0,0,1,1.11.27h0A14.07,14.07,0,0,1,101.34,384.58Z" style="opacity:0.2"></path><ellipse cx="92.12" cy="384.67" rx="8.8" ry="9.71" style="opacity:0.2"></ellipse><path d="M97.75,384.78a5.66,5.66,0,1,1-5.63-6.21A5.94,5.94,0,0,1,97.75,384.78Z" style="opacity:0.2"></path><path d="M94.8,384.69a2.76,2.76,0,1,1-2.74-3A2.9,2.9,0,0,1,94.8,384.69Z"></path><path d="M93.87,372.3a1.74,1.74,0,0,1-1.6,1.14,1.77,1.77,0,0,1-1.63-1.17,9.29,9.29,0,0,1,1.5-.12A9.94,9.94,0,0,1,93.87,372.3Z" style="fill:#263238"></path><path d="M93.88,396.81a9.16,9.16,0,0,1-1.74.16,9.51,9.51,0,0,1-1.51-.12,1.78,1.78,0,0,1,1.64-1.19A1.76,1.76,0,0,1,93.88,396.81Z" style="fill:#263238"></path><path d="M85.15,376.7a1.67,1.67,0,0,1-2,.4,12.07,12.07,0,0,1,2.36-2.57A2.12,2.12,0,0,1,85.15,376.7Z" style="fill:#263238"></path><path d="M82.2,384.55A2,2,0,0,1,81,386.39a13.83,13.83,0,0,1-.12-1.83,14.14,14.14,0,0,1,.12-1.85A2,2,0,0,1,82.2,384.55Z" style="fill:#263238"></path><path d="M85.52,394.58A11.38,11.38,0,0,1,83.15,392a1.66,1.66,0,0,1,2,.4A2.12,2.12,0,0,1,85.52,394.58Z" style="fill:#263238"></path><path d="M158.16,270.41V390h-45.4l-.57-5.44-1.13-11-.07-.67c-.74-7.34-7.59-12.88-15.33-12.88H86c-7.73,0-14.57,5.54-15.33,12.88l-.61,5.88L68.9,390H63.59a15.15,15.15,0,0,1-15.16-15.15V350.59c0-11.87,23.57-15.31,34-20.26a17.59,17.59,0,0,0,3.25-2.65h0c.41-.38.86-.82,1.34-1.28,1.78-1.74,3.92-4,6.25-6.44l.94-1c12-12.74,28.32-31.57,28.32-31.57h10.13l8.88-16.93Z" style="fill:#407BFF"></path><polygon points="132.64 287.38 158.16 287.38 158.16 270.41 141.51 270.45 132.64 287.38" style="fill:#fff;opacity:0.2"></polygon><g style="opacity:0.30000000000000004"><path d="M158.16,270.41V390h-45.4l-.57-5.44-1.13-11-.07-.67c-.74-7.34-7.59-12.88-15.33-12.88H86c-7.73,0-14.57,5.54-15.33,12.88l-.61,5.88L68.9,390H63.59a15.15,15.15,0,0,1-15.16-15.15V350.59c0-11.87,23.57-15.31,34-20.26a17.59,17.59,0,0,0,3.25-2.65h0c.41-.38.86-.82,1.34-1.28,1.78-1.74,3.92-4,6.25-6.44l.94-1c12-12.74,28.32-31.57,28.32-31.57h10.13l8.88-16.93Z" style="fill:#fff"></path><path d="M158.16,330v20.1H48.46c.61-11.49,23.68-14.89,33.95-19.78a2.72,2.72,0,0,0,.52-.32Z" style="fill:#407BFF"></path><path d="M158.16,330v20.1H48.46c.61-11.49,23.68-14.89,33.95-19.78a2.72,2.72,0,0,0,.52-.32Z" style="opacity:0.1"></path><polygon points="132.64 287.38 158.16 287.38 158.16 270.41 141.51 270.45 132.64 287.38" style="fill:#fff;opacity:0.2"></polygon></g><path d="M51.83,351.73v12.51c0,.91-1.13,1.63-2.51,1.63H49a3.29,3.29,0,0,1-.53-.1V350.2a4.89,4.89,0,0,1,.53-.09l.36,0C50.7,350.09,51.83,350.82,51.83,351.73Z" style="fill:#263238"></path><path d="M51.11,351.73v12.51c0,.82-.94,1.5-2.15,1.62a3.29,3.29,0,0,1-.53-.1V350.2a4.89,4.89,0,0,1,.53-.09C50.17,350.22,51.11,350.91,51.11,351.73Z" style="fill:#fff;opacity:0.5"></path><path d="M155.49,385.09H117.1l-2.32-11.41C113.44,363.07,106.36,356,97.17,356H90.3V326.21l32.77-37h32.42Zm-37.57-1h36.57V290.18h-31L91.3,326.58V355h5.87c9.72,0,17.2,7.45,18.6,18.55Z" style="fill:#263238"></path><path d="M92.78,329.21l32-36.61,26.34-.42v29l-57.92,8.77A.44.44,0,0,1,92.78,329.21Z" style="fill:#263238"></path><path d="M89.29,328.52l2.69.93s2,1.05,3.07-.46-1.38-1.47-1.38-1.47A15.14,15.14,0,0,1,89.29,328.52Z" style="fill:#263238"></path><rect x="85.13" y="308.94" width="9.07" height="19.58" rx="2.19" style="fill:#263238"></rect><rect x="86.5" y="310.42" width="6.74" height="16.23" rx="1.27" style="fill:#fff"></rect><path d="M147.34,333.2a3.82,3.82,0,1,1-3.82-3.82A3.81,3.81,0,0,1,147.34,333.2Z" style="opacity:0.2"></path><rect x="138.06" y="331.64" width="10.88" height="2.66" rx="1.25" style="fill:#263238"></rect><rect x="354.91" y="330.01" width="90.8" height="20.1" style="fill:#407BFF"></rect><rect x="354.91" y="330.01" width="90.8" height="20.1" style="opacity:0.2"></rect><rect x="158.16" y="330.01" width="196.75" height="20.1" style="fill:#407BFF"></rect><rect x="260.44" y="275.76" width="71.77" height="29.53" rx="7.41" style="fill:#263238"></rect><rect x="195.56" y="284.78" width="47.46" height="29.53" rx="7.41" transform="translate(-80.26 518.83) rotate(-90)" style="fill:#263238"></rect><rect x="359.91" y="279.63" width="47.46" height="29.53" rx="7.41" transform="translate(89.24 678.03) rotate(-90)" style="fill:#263238"></rect><path d="M239.27,385.09h-77.6V256.28h77.6Zm-76.6-1h75.6V257.28h-75.6Z" style="fill:#263238"></path><path d="M405.4,385.09H361.52V256.28H405.4Zm-42.88-1H404.4V257.28H362.52Z" style="fill:#263238"></path><rect x="199.8" y="256.45" width="1" height="128.14" style="fill:#263238"></rect><rect x="223.05" y="331.72" width="9.3" height="6.29" style="fill:#263238"></rect><rect x="388.66" y="331.72" width="9.3" height="6.29" style="fill:#263238"></rect><rect x="184.23" y="331.72" width="9.3" height="6.29" style="fill:#263238"></rect><path d="M239.27,385.09h-77.6V369.82h77.6Zm-76.6-1h75.6V370.82h-75.6Z" style="fill:#263238"></path><path d="M453.76,316.19V347c0,1.7-1.75,3.08-3.93,3.08H416.15a.57.57,0,0,1-.62-.49v-36a.57.57,0,0,1,.62-.48h33.68C452,313.12,453.76,314.5,453.76,316.19Z" style="fill:#407BFF"></path><g style="opacity:0.4"><path d="M453.76,316.19V347c0,1.7-1.75,3.08-3.93,3.08H416.15a.57.57,0,0,1-.62-.49v-36a.57.57,0,0,1,.62-.48h33.68C452,313.12,453.76,314.5,453.76,316.19Z" style="fill:#fff"></path></g><path d="M453.76,316.19V347c0,1.7-1.75,3.08-3.93,3.08H428.11c-2.16,0-3.92-1.38-3.92-3.08V316.19c0-1.69,1.76-3.07,3.92-3.07h21.72C452,313.12,453.76,314.5,453.76,316.19Z" style="fill:#407BFF"></path><path d="M453.76,316.19V347c0,1.7-1.75,3.08-3.93,3.08H428.11c-2.16,0-3.92-1.38-3.92-3.08V316.19c0-1.69,1.76-3.07,3.92-3.07h21.72C452,313.12,453.76,314.5,453.76,316.19Z" style="fill:#fff;opacity:0.5"></path><path d="M362,366.06v20.68c0,1.36-1.55,2.48-3.55,2.67l-.6,0c-2.29,0-4.15-1.21-4.15-2.7V366.06c0-1.48,1.86-2.69,4.15-2.69l.6,0C360.47,363.59,362,364.71,362,366.06Z" style="fill:#fff;opacity:0.4"></path><path d="M362,366.06v20.68c0,1.36-1.55,2.48-3.55,2.67-2-.19-3.56-1.31-3.56-2.67V366.06c0-1.35,1.55-2.47,3.56-2.66C360.47,363.59,362,364.71,362,366.06Z" style="opacity:0.1"></path><rect x="353.09" y="370.32" width="8.93" height="12.4" style="fill:#407BFF"></rect><path d="M445.72,366.06v20.68c0,1.36-1.55,2.48-3.55,2.67l-.6,0c-2.29,0-4.15-1.21-4.15-2.7V366.06c0-1.48,1.86-2.69,4.15-2.69l.6,0C444.17,363.59,445.72,364.71,445.72,366.06Z" style="fill:#fff;opacity:0.5"></path><path d="M445.72,366.06v20.68c0,1.36-1.55,2.48-3.55,2.67-2-.19-3.56-1.31-3.56-2.67V366.06c0-1.35,1.55-2.47,3.56-2.66C444.17,363.59,445.72,364.71,445.72,366.06Z" style="opacity:0.1"></path><rect x="437.11" y="370.32" width="8.93" height="12.4" style="fill:#407BFF"></rect><path d="M70.7,371.12H44.1v5A14,14,0,0,0,48,385.7h0A13.92,13.92,0,0,0,58,390H68.91Z" style="fill:#263238"></path><path d="M257.69,268h-3.78l-.7,1.73h-2.58l4-8.94h2.49l4,8.94H258.4Zm-.74-1.87-1.15-2.86-1.15,2.86Z" style="fill:#407BFF"></path><path d="M270.33,269.68l0-4.73L268,268.8h-1.12l-2.29-3.73v4.61h-2.34v-8.94h2.09l3.14,5.16,3.06-5.16h2.08l0,8.94Z" style="fill:#407BFF"></path><path d="M283.46,267.23c0,1.55-1.28,2.45-3.68,2.45H275v-8.94h4.57c2.35,0,3.5,1,3.5,2.34a2.09,2.09,0,0,1-1.2,1.94A2.27,2.27,0,0,1,283.46,267.23Zm-6-4.66v1.72h1.74c.84,0,1.28-.29,1.28-.86s-.44-.86-1.28-.86ZM280.9,267c0-.61-.46-.91-1.33-.91h-2.12v1.82h2.12C280.44,267.86,280.9,267.56,280.9,267Z" style="fill:#407BFF"></path><path d="M285.21,265.7v-5h2.53v4.88c0,1.54.63,2.15,1.69,2.15s1.69-.61,1.69-2.15v-4.88h2.49v5c0,2.67-1.56,4.16-4.2,4.16S285.21,268.37,285.21,265.7Z" style="fill:#407BFF"></path><path d="M295.83,260.74h2.53v6.94h4.27v2h-6.8Z" style="fill:#407BFF"></path><path d="M310.23,268h-3.78l-.7,1.73h-2.58l3.94-8.94h2.49l4,8.94h-2.63Zm-.74-1.87-1.15-2.86-1.15,2.86Z" style="fill:#407BFF"></path><path d="M323.29,260.74v8.94h-2.08l-3.94-4.76v4.76h-2.48v-8.94h2.08l3.95,4.77v-4.77Z" style="fill:#407BFF"></path><path d="M325.13,265.21a4.63,4.63,0,0,1,4.92-4.65,4.76,4.76,0,0,1,3.85,1.69l-1.61,1.46a2.66,2.66,0,0,0-2.11-1,2.56,2.56,0,0,0,0,5.11,2.66,2.66,0,0,0,2.11-1l1.61,1.46a4.75,4.75,0,0,1-3.85,1.68A4.63,4.63,0,0,1,325.13,265.21Z" style="fill:#407BFF"></path><path d="M342.71,267.73v1.95h-7.18v-8.94h7v2H338v1.5h4v1.89h-4v1.64Z" style="fill:#407BFF"></path><path d="M368.1,361.39h-3l-.55,1.36h-2l3.09-7h1.95l3.09,7h-2.06Zm-.58-1.46-.9-2.24-.9,2.24Z" style="fill:#407BFF"></path><path d="M378.28,362.75l0-3.71-1.8,3h-.88l-1.79-2.92v3.61H372v-7h1.62l2.46,4,2.4-4h1.63l0,7Z" style="fill:#407BFF"></path><path d="M388.85,360.83c0,1.21-1,1.92-2.87,1.92H382.2v-7h3.58c1.84,0,2.74.75,2.74,1.83a1.65,1.65,0,0,1-.94,1.52A1.77,1.77,0,0,1,388.85,360.83Zm-4.69-3.65v1.35h1.36c.66,0,1-.23,1-.68s-.34-.67-1-.67Zm2.7,3.43c0-.48-.36-.71-1-.71h-1.66v1.42h1.66C386.5,361.32,386.86,361.09,386.86,360.61Z" style="fill:#407BFF"></path><path d="M390.53,359.63v-3.88h2v3.82c0,1.2.5,1.68,1.32,1.68s1.32-.48,1.32-1.68v-3.82h2v3.88a3.29,3.29,0,0,1-6.57,0Z" style="fill:#407BFF"></path><path d="M399.14,355.75h2v5.43h3.34v1.57h-5.32Z" style="fill:#407BFF"></path><path d="M410.71,361.39h-3l-.55,1.36h-2l3.09-7h2l3.09,7h-2.05Zm-.58-1.46-.9-2.24-.9,2.24Z" style="fill:#407BFF"></path><path d="M421.23,355.75v7H419.6L416.51,359v3.73h-1.93v-7h1.62l3.09,3.73v-3.73Z" style="fill:#407BFF"></path><path d="M423,359.25a3.62,3.62,0,0,1,3.85-3.64,3.7,3.7,0,0,1,3,1.32l-1.26,1.14a2.07,2.07,0,0,0-1.65-.82,2,2,0,0,0,0,4,2.07,2.07,0,0,0,1.65-.82l1.26,1.14a3.7,3.7,0,0,1-3,1.32A3.62,3.62,0,0,1,423,359.25Z" style="fill:#407BFF"></path><path d="M437,361.22v1.53h-5.61v-7h5.48v1.53h-3.52v1.18h3.1v1.48h-3.1v1.28Z" style="fill:#407BFF"></path><rect x="176.58" y="287.71" width="8.61" height="22.51" transform="translate(-118.08 479.85) rotate(-90)" style="fill:#fff"></rect><rect x="176.58" y="287.71" width="8.61" height="22.51" transform="translate(361.77 597.94) rotate(180)" style="fill:#fff"></rect><rect x="422.9" y="279.07" width="8.61" height="22.51" transform="translate(136.88 717.53) rotate(-90)" style="fill:#fff"></rect><rect x="422.9" y="279.07" width="8.61" height="22.51" transform="translate(854.41 580.65) rotate(180)" style="fill:#fff"></rect></g><g id="freepik--character-2--inject-3"><g id="freepik--freepik--character-1--inject-22--inject-3"><polygon points="344.72 414.1 341.06 414.31 340.92 410.35 344.58 410.14 344.72 414.1" style="fill:#b55b52"></polygon><path d="M340.82,413.55l4.14-.07a.33.33,0,0,1,.32.25l.77,3.27a.55.55,0,0,1-.41.65h-.12c-1.45,0-2.15-.07-4,0-1.13,0-4,.19-5.58.21s-1.77-1.5-1.14-1.65a12,12,0,0,0,5.39-2.39A.89.89,0,0,1,340.82,413.55Z" style="fill:#263238"></path><polygon points="340.93 409.76 340.99 411.6 344.65 411.38 344.58 409.56 340.93 409.76" style="opacity:0.2"></polygon><path d="M334.23,334.45c-.74,4.41.57,25.87,2,35.34,1.87,12.57,4.08,40.8,4.08,40.8l4.89-.38s.7-29.83-.48-39.93c.35-13,1.36-35.79,1.36-35.79Z" style="fill:#407BFF"></path><path d="M334.23,334.45c-.74,4.41.57,25.87,2,35.34,1.87,12.57,4.08,40.8,4.08,40.8l4.89-.38s.7-29.83-.48-39.93c.35-13,1.36-35.79,1.36-35.79Z" style="opacity:0.30000000000000004"></path><path d="M345.48,348.67c.12-3.3-2.27-6.19-3.1.06-.53,4,.82,10.88,2.52,15.76C345.06,359.38,345.28,353.7,345.48,348.67Z" style="opacity:0.2"></path><polygon points="371.61 405.4 368.83 407.17 366.34 403.15 369.11 401.39 371.61 405.4" style="fill:#b55b52"></polygon><path d="M368.41,407.11l3-2.81a.27.27,0,0,1,.38,0l2.47,2.2a.62.62,0,0,1,0,.89h0c-1.08,1-1.64,1.37-3,2.61-.83.76-1.82,1.84-2.95,2.89s-2.18-.07-1.8-.61a7,7,0,0,0,1.56-4.57A1,1,0,0,1,368.41,407.11Z" style="fill:#263238"></path><polygon points="366.34 403.16 367.46 404.96 370.27 403.11 369.12 401.39 366.34 403.16" style="opacity:0.2"></polygon><path d="M341.52,339.52s4.62,27.85,7.3,38.37c1.92,7.58,17.54,26.41,17.54,26.41l3.78-2.25s-5.88-15-14-24.94c-.51-11.77.5-31.17-4.16-37.55Z" style="fill:#407BFF"></path><path d="M341.52,339.52s4.62,27.85,7.3,38.37c1.92,7.58,17.54,26.41,17.54,26.41l3.78-2.25s-5.88-15-14-24.94c-.51-11.77.5-31.17-4.16-37.55Z" style="opacity:0.30000000000000004"></path><path d="M335.08,315.53c-.23,2.37-.57,4.69-1,7A46.19,46.19,0,0,1,332.4,329l-.12.44-.14.49c-.1.32-.21.63-.32.94-.24.6-.53,1.17-.79,1.73a19.44,19.44,0,0,1-1.23,2.56,48.07,48.07,0,0,1-4.36,5.68,1,1,0,0,1-1.43.07,1,1,0,0,1-.19-1.25v0c1.15-2,2.28-4,3.3-6a24.66,24.66,0,0,0,.78-2.44c.19-.5.37-1,.53-1.5.07-.24.13-.49.19-.73l.08-.35.08-.41s1-4,1.35-6.22.61-4.58.9-6.83v0a2,2,0,1,1,4.05.46Z" style="fill:#b55b52"></path><path d="M324,339.15,321.29,341l3.36,1.77a4.28,4.28,0,0,0,.9-3.16Z" style="fill:#b55b52"></path><path d="M321.42,344.32l1.58.35a.82.82,0,0,0,.9-.42l.75-1.45L321.29,341l-.49,2.32A.82.82,0,0,0,321.42,344.32Z" style="fill:#b55b52"></path><path d="M332.76,310.9c-.71-.19-2.63,6.54-2.63,6.54l5.25,4.88s1.62-7,2.3-9.26S334.66,309.33,332.76,310.9Z" style="fill:#407BFF"></path><path d="M332.76,310.9c-.71-.19-2.63,6.54-2.63,6.54l5.25,4.88s1.62-7,2.3-9.26S334.66,309.33,332.76,310.9Z" style="opacity:0.1"></path><path d="M332,312.74c-.06,7.35,1.36,13.08,2,18.14a30.57,30.57,0,0,1-.42,7.19,106.13,106.13,0,0,0-.73,11l23.1-1.47c-.76-9.9-5.63-15.9-5.62-17.27,0-4.11.45-8.31,2.24-16.35a3.45,3.45,0,0,0-2.62-4.11l-.31-.05c-1-.13-2-.24-3.13-.3a52.89,52.89,0,0,0-7.34,0c-1.72.15-3.57.44-4.89.66A2.73,2.73,0,0,0,332,312.74Z" style="fill:#407BFF"></path><path d="M332,312.74c-.06,7.35,1.36,13.08,2,18.14a30.57,30.57,0,0,1-.42,7.19,106.13,106.13,0,0,0-.73,11l23.1-1.47c-.76-9.9-5.63-15.9-5.62-17.27,0-4.11.45-8.31,2.24-16.35a3.45,3.45,0,0,0-2.62-4.11l-.31-.05c-1-.13-2-.24-3.13-.3a52.89,52.89,0,0,0-7.34,0c-1.72.15-3.57.44-4.89.66A2.73,2.73,0,0,0,332,312.74Z" style="opacity:0.1"></path><path d="M339.15,309.46s-2.6,1.88.26,6.46q3.38-3.39,7.07-6.44Z" style="fill:#fff;isolation:isolate;opacity:0.4"></path><path d="M352,314.15c0,2.38-1.91,13.43-2.3,15.8l-.07.44-.1.5c-.07.33-.15.65-.23,1-.18.62-.42,1.22-.62,1.8a34.31,34.31,0,0,1-1.53,3.32,48.12,48.12,0,0,1-3.82,6,1,1,0,0,1-1.72-1v0c1-2.06,1.9-4.18,2.72-6.29.41-1.05.78-2.11,1.1-3.15.14-.52.28-1,.38-1.54.06-.26.09-.51.13-.75l0-.36.05-.41c.21-2.26,1.83-13.1,1.9-15.38v0a2,2,0,1,1,4.08.08Z" style="fill:#b55b52"></path><path d="M342.51,340.28,340,342.41l3.51,1.44a4.28,4.28,0,0,0,.6-3.23Z" style="fill:#b55b52"></path><path d="M340.42,345.66l1.6.21a.83.83,0,0,0,.86-.5l.62-1.52L340,342.41l-.27,2.35A.81.81,0,0,0,340.42,345.66Z" style="fill:#b55b52"></path><path d="M349,310.23c-3.43,2.08-3.5,8.86-3.5,8.86l7.24-1a13.51,13.51,0,0,0,.29-4.89C352.4,310.66,350.5,309.31,349,310.23Z" style="fill:#407BFF"></path><path d="M349,310.23c-3.43,2.08-3.5,8.86-3.5,8.86l7.24-1a13.51,13.51,0,0,0,.29-4.89C352.4,310.66,350.5,309.31,349,310.23Z" style="opacity:0.1"></path><path d="M345.79,301.22c-.47,2.36-1,6.68.69,8.26a23.1,23.1,0,0,0-6.85,4.39c-1.85-3.25-.49-4.42-.49-4.42,2.64-.61,2.58-2.57,2.13-4.4Z" style="fill:#b55b52"></path><path d="M345.3,301.64a9.87,9.87,0,0,1-1,4.05,3.31,3.31,0,0,1-2.8,1.34,6.29,6.29,0,0,0-.23-2Z" style="opacity:0.2"></path><path d="M349.56,298.29c-1.16,3.77-1.54,5.4-4,6.91-3.61,2.26-8,0-8-4,0-3.63,1.88-9.2,6-9.84a5.39,5.39,0,0,1,6.17,4.45A5.53,5.53,0,0,1,349.56,298.29Z" style="fill:#b55b52"></path><path d="M347.08,290.58a5.66,5.66,0,0,0-6.79-.63,6,6,0,0,0-3,3.78,2.2,2.2,0,0,0,1.23,2.51,6.33,6.33,0,0,1,1.41-2,4.5,4.5,0,0,1,3.31-.6,16.33,16.33,0,0,0,2.66,4.31,5.07,5.07,0,0,0,4.28,1.83,6.57,6.57,0,0,0,1-6.65C350.18,291,347.08,290.58,347.08,290.58Z" style="fill:#263238"></path><path d="M348.83,294.25c.52-.49,1.21-.94,1.74-1.43a7.3,7.3,0,0,0-4.53-6.4,7.15,7.15,0,0,0-7.54,1.83l.78,2.27A9.34,9.34,0,0,1,348.83,294.25Z" style="fill:#407BFF"></path><path d="M348.83,294.25c.52-.49,1.21-.94,1.74-1.43a7.3,7.3,0,0,0-4.53-6.4,7.15,7.15,0,0,0-7.54,1.83l.78,2.27A9.34,9.34,0,0,1,348.83,294.25Z" style="fill:#fff;opacity:0.7000000000000001"></path><path d="M350.42,300.42a2.88,2.88,0,0,1-1.41,1.71c-.9.46-1.55-.29-1.48-1.25s.63-2.13,1.61-2.2a1.29,1.29,0,0,1,1.35,1.24A1.41,1.41,0,0,1,350.42,300.42Z" style="fill:#b55b52"></path><path d="M343.69,298.07c-.08.31-.3.53-.51.48s-.31-.34-.23-.65.3-.53.5-.48S343.76,297.76,343.69,298.07Z" style="fill:#263238"></path><path d="M340.16,297.23c-.07.32-.3.53-.5.48s-.31-.34-.24-.65.3-.52.5-.48S340.23,296.92,340.16,297.23Z" style="fill:#263238"></path><path d="M340,296.62l-.7-.39S339.56,296.91,340,296.62Z" style="fill:#263238"></path><path d="M341,298a8.67,8.67,0,0,1-1.58,1.73,1.35,1.35,0,0,0,1.06.47Z" style="fill:#a02724"></path><path d="M341.2,301.4a.09.09,0,0,1,0-.1.09.09,0,0,1,.12-.06h0a2.58,2.58,0,0,0,2.26-.42.09.09,0,0,1,.12.14,2.67,2.67,0,0,1-2.44.45Z" style="fill:#263238"></path><path d="M344.76,297.06s-.05,0-.06-.07a1.47,1.47,0,0,0-1-.89.19.19,0,1,1,.06-.38h0a1.91,1.91,0,0,1,1.32,1.12.19.19,0,0,1-.11.24A.17.17,0,0,1,344.76,297.06Z" style="fill:#263238"></path><path d="M339.15,295.71l0,0a.19.19,0,0,1,0-.27,1.89,1.89,0,0,1,1.62-.5.18.18,0,0,1,.14.22h0a.18.18,0,0,1-.22.14,1.48,1.48,0,0,0-1.3.41A.2.2,0,0,1,339.15,295.71Z" style="fill:#263238"></path><path d="M343.54,297.46l-.7-.4S343.08,297.74,343.54,297.46Z" style="fill:#263238"></path></g></g><g id="freepik--character-1--inject-3"><path d="M279.57,394.53c0-12.42,8.89-22.53,19.83-22.53s19.83,10.11,19.83,22.53-8.9,22.54-19.83,22.54S279.57,407,279.57,394.53Zm2.71,0c0,10.93,7.68,19.82,17.12,19.82s17.11-8.89,17.11-19.82-7.67-19.82-17.11-19.82S282.28,383.6,282.28,394.53Z" style="fill:#263238"></path><g style="opacity:0.30000000000000004"><path d="M279.57,394.53c0-12.42,8.89-22.53,19.83-22.53s19.83,10.11,19.83,22.53-8.9,22.54-19.83,22.54S279.57,407,279.57,394.53Zm2.71,0c0,10.93,7.68,19.82,17.12,19.82s17.11-8.89,17.11-19.82-7.67-19.82-17.11-19.82S282.28,383.6,282.28,394.53Z" style="fill:#fff"></path></g><path d="M283.08,394.53c0-10.26,7.32-18.61,16.32-18.61s16.31,8.35,16.31,18.61-7.32,18.62-16.31,18.62S283.08,404.8,283.08,394.53Zm1.21,0c0,9.6,6.78,17.41,15.11,17.41s15.11-7.81,15.11-17.41-6.78-17.41-15.11-17.41S284.29,384.93,284.29,394.53Z" style="fill:#263238"></path><g style="opacity:0.7000000000000001"><path d="M283.08,394.53c0-10.26,7.32-18.61,16.32-18.61s16.31,8.35,16.31,18.61-7.32,18.62-16.31,18.62S283.08,404.8,283.08,394.53Zm1.21,0c0,9.6,6.78,17.41,15.11,17.41s15.11-7.81,15.11-17.41-6.78-17.41-15.11-17.41S284.29,384.93,284.29,394.53Z" style="fill:#fff"></path></g><rect x="271.91" y="380.39" width="56.44" height="3.92" rx="1.95" transform="translate(600.26 764.7) rotate(180)" style="fill:#263238"></rect><polygon points="328.63 364.26 308.75 364.26 310.08 351.23 329.96 351.23 328.63 364.26" style="fill:#263238"></polygon><polygon points="328.63 364.26 308.75 364.26 310.08 351.23 329.96 351.23 328.63 364.26" style="opacity:0.4"></polygon><path d="M323.24,344.74h-2c-1.92,0-3.85-.06-5.77,0a7,7,0,0,0-6.76,5.61c-.42,2.28-.51,4.66-.75,6.95q-1.49,14.22-3,28.45c-.23,2.27.11,6.9-2.59,7.82a10.72,10.72,0,0,1-3.3.17H278.19c-1.16,0-2.32,0-3.48,0a10.09,10.09,0,0,0-2.77.44v1.67a6.78,6.78,0,0,1,1.3-.4,20.47,20.47,0,0,1,3.59-.12h20.52c3.39,0,7.9.49,8.6-4,.33-2.16.46-4.37.69-6.54q1.47-14,2.93-28c.16-1.48.31-3,.47-4.43a8.31,8.31,0,0,1,.68-3.1c1.43-2.8,4.16-2.9,6.87-2.9h5.65A.79.79,0,0,0,323.24,344.74Z" style="fill:#263238"></path><path d="M323.24,344.74h-2c-1.92,0-3.85-.06-5.77,0a7,7,0,0,0-6.76,5.61c-.42,2.28-.51,4.66-.75,6.95q-1.49,14.22-3,28.45c-.23,2.27.11,6.9-2.59,7.82a10.72,10.72,0,0,1-3.3.17H278.19c-1.16,0-2.32,0-3.48,0a10.09,10.09,0,0,0-2.77.44v1.67a6.78,6.78,0,0,1,1.3-.4,20.47,20.47,0,0,1,3.59-.12h20.52c3.39,0,7.9.49,8.6-4,.33-2.16.46-4.37.69-6.54q1.47-14,2.93-28c.16-1.48.31-3,.47-4.43a8.31,8.31,0,0,1,.68-3.1c1.43-2.8,4.16-2.9,6.87-2.9h5.65A.79.79,0,0,0,323.24,344.74Z" style="fill:#fff;opacity:0.7000000000000001"></path><path d="M324.18,346.66h-7.8a1.13,1.13,0,0,1,0-2.26h7.8a1.13,1.13,0,0,1,0,2.26Z" style="fill:#263238"></path><path d="M270.1,410.62c0-3.56,2.6-6.46,5.8-6.46s5.8,2.9,5.8,6.46-2.6,6.45-5.8,6.45S270.1,414.18,270.1,410.62Zm2.72,0c0,2.06,1.38,3.73,3.08,3.73s3.09-1.67,3.09-3.73-1.39-3.74-3.09-3.74S272.82,408.56,272.82,410.62Z" style="fill:#263238"></path><path d="M307.68,366.85c-9.75,0-19.51-.06-29.26,0a5.28,5.28,0,0,0-5.56,5.26c-.05,1.5,0,3,0,4.51v28.09c0,2.48-.2,5.65,3.26,5.82,1,.05,1,1.64,0,1.59-3.18-.16-4.85-2.6-4.85-5.57V379.16c0-4.56-1.14-11.06,4-13.32,1.76-.78,3.79-.58,5.68-.58h26.71a.8.8,0,0,1,0,1.59Z" style="fill:#263238"></path><g style="opacity:0.7000000000000001"><path d="M307.68,366.85c-9.75,0-19.51-.06-29.26,0a5.28,5.28,0,0,0-5.56,5.26c-.05,1.5,0,3,0,4.51v28.09c0,2.48-.2,5.65,3.26,5.82,1,.05,1,1.64,0,1.59-3.18-.16-4.85-2.6-4.85-5.57V379.16c0-4.56-1.14-11.06,4-13.32,1.76-.78,3.79-.58,5.68-.58h26.71a.8.8,0,0,1,0,1.59Z" style="fill:#fff"></path></g><rect x="280.36" y="363.43" width="22.15" height="3.92" rx="1.95" transform="translate(582.87 730.79) rotate(180)" style="fill:#263238"></rect><path d="M265.24,408.6l4.16.17a.3.3,0,0,1,.28.25l.55,3.08a.49.49,0,0,1-.41.58h-.11c-1.35-.08-2.33-.2-4-.27-1.05,0-4.2-.07-5.64-.13s-1.57-1.49-1-1.59a13.37,13.37,0,0,0,5.57-1.93A.79.79,0,0,1,265.24,408.6Z" style="fill:#263238"></path><path d="M262.73,408.78l8.14.31,8.2-30.47s15.34,2.95,27.88.43c1.74-.33,6.41-.59,8-1.31,8.3-3,5.41-17.61,5.41-17.61L300,359.62l.56,3s-23.73,2.44-30.06,5.94c-2.2,1.22-3.68,6.81-4.69,13.6C263.93,394.93,262.73,408.78,262.73,408.78Z" style="fill:#407BFF"></path><path d="M262.73,408.78l8.14.31,8.2-30.47s15.34,2.95,27.88.43c1.74-.33,6.41-.59,8-1.31,8.3-3,5.41-17.61,5.41-17.61L300,359.62l.56,3s-23.73,2.44-30.06,5.94c-2.2,1.22-3.68,6.81-4.69,13.6C263.93,394.93,262.73,408.78,262.73,408.78Z" style="opacity:0.1"></path><path d="M288.58,367.62c-6.66,1.83-8.44,6-9.51,11,0,0,12.81,2.46,24.59,1l2.35-5.07-3.7-8.74A60.65,60.65,0,0,0,288.58,367.62Z" style="opacity:0.30000000000000004"></path><path d="M271.85,408.28l4.84.2a.35.35,0,0,1,.33.28l.64,3.58a.6.6,0,0,1-.49.68H277c-1.56-.09-2.69-.23-4.66-.31-1.21-.05-4.86-.08-6.53-.14s-1.82-1.73-1.13-1.86c3.09-.54,5.44-1.37,6.46-2.23A1,1,0,0,1,271.85,408.28Z" style="fill:#263238"></path><path d="M320.39,360.13s2.26,14.18-5.41,17.61-20.34,2.44-20.34,2.44l-16.33,30.11L271,409.23s7.46-35.85,13.76-40.26c1.7-1.19,20-4.21,20-4.21Z" style="fill:#407BFF"></path><path d="M286.39,363.21c1.32-.36,2.59-.82,3.85-1.3s2.49-1,3.72-1.56l1.83-.86a7.52,7.52,0,0,0,2.14-1.62,7.93,7.93,0,0,0,2.12-4.9v-.2c-.07-2.43-.16-4.86-.29-7.29s-.31-4.85-.54-7.27l-4,.18c0,2.43,0,4.87.13,7.3s.22,4.85.38,7.28v-.2a3.9,3.9,0,0,1-.86,2.38,4.08,4.08,0,0,1-1,.87l-1.7,1c-1.13.72-2.26,1.45-3.36,2.22s-2.18,1.58-3.22,2.47Z" style="fill:#7f3e3b"></path><path d="M298,331.8c-3.59,2.61-5,10.35-5,10.35l8,3.7a14.5,14.5,0,0,0,2.27-6.09C303.52,338.51,301.63,329.15,298,331.8Z" style="fill:#407BFF"></path><g style="opacity:0.5"><path d="M298,331.8c-3.59,2.61-5,10.35-5,10.35l8,3.7a14.5,14.5,0,0,0,2.27-6.09C303.52,338.51,301.63,329.15,298,331.8Z" style="fill:#fff"></path></g><path d="M300.23,330.86a45.13,45.13,0,0,1,12.91-.68,5.51,5.51,0,0,1,4.95,4.23c1.27,5.43,2.83,8.7,2.08,25.8-11.24,2.27-20,1.88-20.59,1.32-1.55-3-3.2-20.25-3.66-24.72A5.49,5.49,0,0,1,300.23,330.86Z" style="fill:#263238"></path><path d="M307.28,323.15c.38,2.87,1,6.19,3,7.82a6.06,6.06,0,0,1-5.44,3.9c-3.07.16-2.6-2.29-2.09-3.58,1.3-1.47.68-3.09.35-4.25Z" style="fill:#7f3e3b"></path><path d="M306.43,324.55c0-.18-.05-.36-.08-.54l-3.26,3a6.91,6.91,0,0,1,.43,2.45C305.14,328.4,306.63,326.29,306.43,324.55Z" style="opacity:0.2"></path><path d="M308.35,319c-.48,3.79-.57,6-2.62,7.85-3.09,2.73-7.68.63-8.34-3.24-.6-3.48.29-9.09,4.12-10.33A5.26,5.26,0,0,1,308.35,319Z" style="fill:#7f3e3b"></path><path d="M303.24,319.48a2.09,2.09,0,0,1,1.59-.12A4.08,4.08,0,0,1,303.24,319.48Z" style="opacity:0.2"></path><path d="M303.29,319.86a1.71,1.71,0,0,1,1.43.25A3.55,3.55,0,0,1,303.29,319.86Z" style="opacity:0.2"></path><path d="M302.45,323.41a2.68,2.68,0,0,1,1.44,1.74A5.29,5.29,0,0,1,302.45,323.41Z" style="opacity:0.2"></path><path d="M299.4,323.56a2,2,0,0,0-.93,1.45A4,4,0,0,0,299.4,323.56Z" style="opacity:0.2"></path><path d="M302.28,319.75c0,.31-.2.55-.4.53s-.35-.28-.33-.59.2-.55.4-.53S302.3,319.44,302.28,319.75Z" style="fill:#263238"></path><path d="M298.4,319.58c0,.31-.2.55-.4.53s-.35-.28-.33-.59.2-.55.4-.53S298.42,319.27,298.4,319.58Z" style="fill:#263238"></path><path d="M299.53,320a11,11,0,0,1-1.81,2.44,1.83,1.83,0,0,0,1.44.48Z" style="fill:#630f0f"></path><path d="M303,317.7a.32.32,0,0,1,0,.09.18.18,0,0,1-.16.2,1.82,1.82,0,0,1-1.58-.56.18.18,0,0,1,0-.25.18.18,0,0,1,.26,0h0a1.47,1.47,0,0,0,1.26.43A.19.19,0,0,1,303,317.7Z" style="fill:#263238"></path><path d="M303,317.7a.32.32,0,0,1,0,.09.18.18,0,0,1-.16.2,1.82,1.82,0,0,1-1.58-.56.18.18,0,0,1,0-.25.18.18,0,0,1,.26,0h0a1.47,1.47,0,0,0,1.26.43A.19.19,0,0,1,303,317.7Z" style="fill:#fff;opacity:0.6000000000000001"></path><path d="M297.38,317.67a.17.17,0,0,1,.16-.06,1.43,1.43,0,0,0,1.24-.42.18.18,0,1,1,.28.24,1.77,1.77,0,0,1-1.57.54.18.18,0,0,1-.16-.2A.19.19,0,0,1,297.38,317.67Z" style="fill:#263238"></path><path d="M297.38,317.67a.17.17,0,0,1,.16-.06,1.43,1.43,0,0,0,1.24-.42.18.18,0,1,1,.28.24,1.77,1.77,0,0,1-1.57.54.18.18,0,0,1-.16-.2A.19.19,0,0,1,297.38,317.67Z" style="fill:#fff;opacity:0.6000000000000001"></path><path d="M316.73,332.72l.68.91c.22.3.43.61.64.91.41.61.82,1.22,1.21,1.85a44.16,44.16,0,0,1,2.17,3.87,32,32,0,0,1,1.76,4.2,20.05,20.05,0,0,1,.63,2.28c.08.39.15.8.21,1.21l.07.62s0,.15,0,.23,0,.17,0,.26,0,.33,0,.48a6.63,6.63,0,0,1-1.07,2.88,14.28,14.28,0,0,1-1.52,2,28,28,0,0,1-3.35,3.05,50.18,50.18,0,0,1-7.31,4.74,1.23,1.23,0,0,1-1.36-2l0,0c1.06-.86,2.15-1.75,3.18-2.67s2.06-1.83,3-2.78a28.5,28.5,0,0,0,2.64-2.93,9.77,9.77,0,0,0,1-1.47,2.62,2.62,0,0,0,.35-1.07s0,0,0,0h0s0,0,0,0l-.08-.43c-.06-.28-.13-.57-.22-.86a17.57,17.57,0,0,0-.6-1.77,34.45,34.45,0,0,0-1.67-3.55c-.64-1.16-1.33-2.32-2.05-3.46-.36-.57-.73-1.14-1.11-1.7l-.58-.83c-.18-.27-.39-.56-.56-.8l0,0a2.47,2.47,0,0,1,4-3Z" style="fill:#7f3e3b"></path><path d="M314.48,330.42c4.35.9,8,8.4,8,8.4l-4.92,7.37a20.63,20.63,0,0,1-5.19-6.16C311.75,338.91,310.06,329.52,314.48,330.42Z" style="fill:#407BFF"></path><g style="opacity:0.5"><path d="M314.51,330.47c4.34.89,7.95,8.37,7.95,8.37l-4.92,7.35a20.49,20.49,0,0,1-5.17-6.14C311.78,338.93,310.09,329.56,314.51,330.47Z" style="fill:#fff"></path></g><path d="M310.29,359.79l-3.34.95,2.22,3.52s2.91-1.23,2.51-2.88Z" style="fill:#7f3e3b"></path><path d="M305.17,363.87l1,1.1a1.21,1.21,0,0,0,1.54.22l1.47-.93L307,360.74l-1.66,1.42A1.2,1.2,0,0,0,305.17,363.87Z" style="fill:#7f3e3b"></path><path d="M287.41,360.81l-3.43-.52.56,4.12s3.16.09,3.48-1.58Z" style="fill:#7f3e3b"></path><path d="M281.06,362.41l.44,1.41a1.21,1.21,0,0,0,1.32.83l1.72-.24-.56-4.12-2.1.61A1.2,1.2,0,0,0,281.06,362.41Z" style="fill:#7f3e3b"></path><path d="M309.2,329.55c.09.88-1,4-4.65,5.33,1.42,0,2,1.81,2,1.81s4.89-2.6,4.31-5.74A1.74,1.74,0,0,0,309.2,329.55Z" style="fill:#407BFF"></path><path d="M303.41,329.79c.09.86-.9,2.67,1.14,5.09a3,3,0,0,0-2.27,1.43,6.08,6.08,0,0,1-.4-5.81A2.85,2.85,0,0,1,303.41,329.79Z" style="fill:#407BFF"></path><g style="opacity:0.5"><path d="M309.2,329.56c.09.88-1,4-4.63,5.32,1.41,0,2,1.81,2,1.81s4.87-2.6,4.3-5.73A1.74,1.74,0,0,0,309.2,329.56Z" style="fill:#fff"></path><path d="M303.43,329.8c.09.86-.91,2.66,1.14,5.08a3,3,0,0,0-2.27,1.42,6,6,0,0,1-.4-5.79A2.85,2.85,0,0,1,303.43,329.8Z" style="fill:#fff"></path></g><path d="M307.13,324.52a6.44,6.44,0,0,1-1.22-4.8s-1.14-1.13-1.14-4c0,0-8.15,1.69-8.72-2s12.94-3.08,15.73.2C311.78,313.87,310.94,324.29,307.13,324.52Z" style="fill:#263238"></path><g style="opacity:0.6000000000000001"><path d="M307.13,324.52a6.44,6.44,0,0,1-1.22-4.8s-1.14-1.13-1.14-4c0,0-8.15,1.69-8.72-2s12.94-3.08,15.73.2C311.78,313.87,310.94,324.29,307.13,324.52Z" style="fill:#fff"></path></g><path d="M301.38,324.44l.36.18a.08.08,0,0,1,0,.11h0a.08.08,0,0,1-.11,0,2.2,2.2,0,0,0-2-.18.09.09,0,0,1-.11,0,.08.08,0,0,1,0-.11A2.27,2.27,0,0,1,301.38,324.44Z" style="fill:#263238"></path><path d="M309.39,322.94a3.58,3.58,0,0,1-2.26,1.58c-1.25.26-1.8-.87-1.4-2s1.46-2.38,2.68-2.13A1.64,1.64,0,0,1,309.39,322.94Z" style="fill:#7f3e3b"></path><path d="M298.9,322.81a1.12,1.12,0,0,0-.37.74.76.76,0,0,0,.27.7.49.49,0,0,0,.69-.08,1.49,1.49,0,0,0,1.3-.13,1.88,1.88,0,0,0,.79.25.5.5,0,0,0,.54-.39c0-.27-.21-.47-.45-.6A7.24,7.24,0,0,0,298.9,322.81Z" style="fill:#263238"></path><path d="M298.9,322.81a1.12,1.12,0,0,0-.37.74.76.76,0,0,0,.27.7.49.49,0,0,0,.69-.08,1.49,1.49,0,0,0,1.3-.13,1.88,1.88,0,0,0,.79.25.5.5,0,0,0,.54-.39c0-.27-.21-.47-.45-.6A7.24,7.24,0,0,0,298.9,322.81Z" style="fill:#fff;opacity:0.6000000000000001"></path><path d="M344,344.74h-2c-1.92,0-3.85-.06-5.78,0a7,7,0,0,0-6.75,5.61c-.42,2.28-.51,4.66-.75,6.95q-1.49,14.22-3,28.45c-.24,2.27.11,6.9-2.59,7.82a10.73,10.73,0,0,1-3.3.17H299c-1.16,0-2.33,0-3.49,0a10,10,0,0,0-2.76.44v1.67a6.91,6.91,0,0,1,1.29-.4,20.5,20.5,0,0,1,3.59-.12h20.53c3.39,0,7.9.49,8.6-4,.33-2.16.46-4.37.69-6.54q1.47-14,2.93-28c.16-1.48.31-3,.47-4.43a8.5,8.5,0,0,1,.67-3.1c1.44-2.8,4.17-2.9,6.88-2.9H344A.79.79,0,0,0,344,344.74Z" style="fill:#263238"></path><path d="M290.87,411.22c0-3.56,2.6-6.46,5.8-6.46s5.8,2.9,5.8,6.46-2.6,6.45-5.8,6.45S290.87,414.78,290.87,411.22Zm2.71,0c0,2.06,1.39,3.73,3.09,3.73s3.09-1.67,3.09-3.73-1.39-3.74-3.09-3.74S293.58,409.16,293.58,411.22Z" style="fill:#263238"></path><path d="M328.44,366.85c-9.75,0-19.5-.06-29.25,0a5.29,5.29,0,0,0-5.57,5.26c0,1.5,0,3,0,4.51v28.09c0,2.48-.2,5.65,3.27,5.82,1,.05,1,1.64,0,1.59-3.18-.16-4.85-2.6-4.85-5.57V379.16c0-4.56-1.15-11.06,4-13.32,1.77-.78,3.8-.58,5.69-.58h26.7a.8.8,0,0,1,0,1.59Z" style="fill:#263238"></path><rect x="301.13" y="363.43" width="22.15" height="3.92" rx="1.95" transform="translate(624.4 730.79) rotate(180)" style="fill:#263238"></rect><path d="M305.7,394.53c0-12.42,8.89-22.53,19.83-22.53s19.83,10.11,19.83,22.53-8.89,22.54-19.83,22.54S305.7,407,305.7,394.53Zm2.71,0c0,10.93,7.68,19.82,17.12,19.82s17.12-8.89,17.12-19.82-7.68-19.82-17.12-19.82S308.41,383.6,308.41,394.53Z" style="fill:#263238"></path><path d="M309.21,394.53c0-10.26,7.32-18.61,16.32-18.61s16.32,8.35,16.32,18.61-7.32,18.62-16.32,18.62S309.21,404.8,309.21,394.53Zm1.21,0c0,9.6,6.78,17.41,15.11,17.41s15.11-7.81,15.11-17.41-6.78-17.41-15.11-17.41S310.42,384.93,310.42,394.53Z" style="fill:#263238"></path><path d="M344,344.74h-2c-1.92,0-3.85-.06-5.78,0a7,7,0,0,0-6.75,5.61c-.42,2.28-.51,4.66-.75,6.95q-.42,4-.83,8H301.74c-1.89,0-3.92-.2-5.69.58-5.16,2.26-4,8.76-4,13.32v27.39c0,3,1.67,5.41,4.85,5.57,1,.05,1-1.54,0-1.59-3.47-.17-3.27-3.34-3.27-5.82v-9.16l.38-.1a20.5,20.5,0,0,1,3.59-.12h11.66c.37,9.89,7.52,17.82,16.28,17.82,9,0,16.32-8.35,16.32-18.62,0-9.18-5.87-16.81-13.55-18.32l2-19.46c.16-1.48.31-3,.47-4.43a8.5,8.5,0,0,1,.67-3.1c1.44-2.8,4.17-2.9,6.88-2.9H344A.79.79,0,0,0,344,344.74Zm-3.36,49.79c0,9.6-6.78,17.41-15.11,17.41-8.1,0-14.71-7.38-15.07-16.61h7.66c3.39,0,7.9.49,8.6-4,.33-2.16.46-4.37.69-6.54q.38-3.67.77-7.35C335.25,378.86,340.64,386,340.64,394.53Zm-30.18-.79c.36-9.23,7-16.62,15.07-16.62.37,0,.73,0,1.09.07l-.9,8.56c-.24,2.27.11,6.9-2.59,7.82a10.73,10.73,0,0,1-3.3.17h-9.37Zm15.07-17.82c-8.76,0-15.91,7.92-16.28,17.82H299c-1.16,0-2.33,0-3.49,0a9.46,9.46,0,0,0-1.85.23V376.62c0-1.5,0-3,0-4.51a5.29,5.29,0,0,1,5.57-5.26c9.5-.06,19,0,28.51,0l-1,9.15A12.09,12.09,0,0,0,325.53,375.92Z" style="fill:#fff;opacity:0.7000000000000001"></path><path d="M345,346.66h-7.8a1.13,1.13,0,0,1,0-2.26H345a1.13,1.13,0,0,1,0,2.26Z" style="fill:#263238"></path></g></svg>